<?xml version="1.0" encoding="utf-8"?>
<!-- Generator: Adobe Illustrator 25.0.0, SVG Export Plug-In . SVG Version: 6.00 Build 0)  -->
<svg version="1.1" id="Capa_1" xmlns="http://www.w3.org/2000/svg" xmlns:xlink="http://www.w3.org/1999/xlink" x="0px" y="0px"
	 viewBox="0 0 200 200" style="enable-background:new 0 0 200 200;" xml:space="preserve">
<style type="text/css">
	.st0{fill:#FFFFFF;}
	.st1{fill:#EAB308;}
</style>
<rect x="0.04" y="0" class="st0" width="200" height="200"/>
<g id="_x34_11_x2C__App_x2C__Coding_x2C__Computer_x2C__Develop_x2C__Development">
	<g>
		<path class="st1" d="M163.5,34.33H36.59c-1.55,0-2.87,1.31-2.87,2.84V140.8c0,1.53,1.32,2.84,2.87,2.84h49.66V160h-5.52
			c-1.54,0-2.87,1.31-2.87,2.84c0,1.53,1.33,2.84,2.87,2.84c7.95,0,23.84,0,38.63,0c1.54,0,2.87-1.31,2.87-2.84
			c0-1.53-1.32-2.84-2.87-2.84h-5.52v-16.36h49.66c1.54,0,2.87-1.31,2.87-2.84V37.17C166.15,35.64,165.04,34.33,163.5,34.33z
			 M160.63,127.05H102.8V39.78h57.82V127.05z M97.28,39.78v87.27H39.24V39.78H97.28z M108.32,159.78H91.77v-16.36h16.55V159.78z
			 M39.24,137.96v-5.45h121.39v5.45C133.48,137.96,63.3,137.96,39.24,137.96z"/>
		<rect x="133.04" y="79.27" class="st1" width="5.08" height="5.02"/>
		<rect x="124.87" y="79.27" class="st1" width="5.08" height="5.02"/>
		<path class="st1" d="M115.38,84.07l0.88,0.43v3.27c0,1.53,1.33,2.84,2.87,2.84h3.75c1.54,0,2.87-1.31,2.87-2.84
			c0-1.53-1.33-2.84-2.87-2.84h-1.1v-2.4c0-0.65-0.22-1.09-0.44-1.53c0.66-1.09,0.44-1.96,0.44-2.84h1.1c1.54,0,2.87-1.31,2.87-2.84
			c0-1.53-1.33-2.84-2.87-2.84h-3.75c-1.54,0-2.87,1.31-2.87,2.84v2.84l-1.54,1.31C113.18,80.58,113.62,83.2,115.38,84.07z"/>
		<path class="st1" d="M142.31,84.95h-0.88c-1.54,0-2.87,1.31-2.87,2.84c0,1.53,1.32,2.84,2.87,2.84h3.75
			c1.54,0,2.87-1.31,2.87-2.84v-3.49l0.88-0.22c1.99-0.87,2.21-3.27,0.66-4.58l-1.54-1.31v-2.84c0-1.53-1.33-2.84-2.87-2.84h-3.75
			c-1.54,0-2.87,1.31-2.87,2.84c0,1.53,1.32,2.84,2.87,2.84h0.88c0,1.09-0.22,1.96,0.44,2.84c-0.22,0.44-0.44,1.09-0.44,1.53V84.95
			L142.31,84.95z"/>
		<path class="st1" d="M47.63,99.78H88.9c1.54,0,2.87-1.31,2.87-2.84c0-7.42,0-36.22,0-49.09c0-1.53-1.32-2.84-2.87-2.84H47.63
			c-1.54,0-2.87,1.31-2.87,2.84c0,4.36,0,36.65,0,49.09C44.76,98.69,46.08,99.78,47.63,99.78z M50.27,94.33V67.05h35.98v27.27H50.27
			z M50.27,50.69h35.98V61.6H50.27V50.69z"/>
		<path class="st1" d="M64.62,73.38c-1.1-1.09-2.87-1.09-3.97,0l-5.52,5.45c-1.1,1.09-1.1,2.84,0,3.93l5.52,5.45
			c0.66,0.65,1.32,0.87,1.99,0.87c2.43,0,3.75-2.84,1.99-4.58l-3.53-3.49l3.53-3.49C65.72,76.22,65.72,74.47,64.62,73.38z"/>
		<path class="st1" d="M74.33,73.38c-1.1-1.09-2.87-1.09-3.97,0c-1.1,1.09-1.1,2.84,0,3.93l3.53,3.49l-3.31,3.49
			c-1.77,1.75-0.44,4.58,1.99,4.58c0.66,0,1.33-0.22,1.99-0.87l5.52-5.45c1.1-1.09,1.1-2.84,0-3.93L74.33,73.38z"/>
		<path class="st1" d="M47.63,121.6H88.9c1.54,0,2.87-1.31,2.87-2.84v-10.91c0-1.53-1.32-2.84-2.87-2.84H47.63
			c-1.54,0-2.87,1.31-2.87,2.84v10.91C44.76,120.51,46.08,121.6,47.63,121.6z M50.27,110.69h35.98v5.45H50.27V110.69z"/>
	</g>
</g>
</svg>
