<?xml version="1.0" encoding="utf-8"?>
<!-- Generator: Adobe Illustrator 25.0.0, SVG Export Plug-In . SVG Version: 6.00 Build 0)  -->
<svg version="1.1" id="Capa_1" xmlns="http://www.w3.org/2000/svg" xmlns:xlink="http://www.w3.org/1999/xlink" x="0px" y="0px"
	 viewBox="0 0 200 200" style="enable-background:new 0 0 200 200;" xml:space="preserve">
<style type="text/css">
	.st0{fill:#FFFFFF;}
	.st1{fill:#EAB308;}
</style>
<rect x="0.04" y="0" class="st0" width="200" height="200"/>
<g>
	<g>
		<path class="st1" d="M106.4,143.91H93.69c-0.89,0-1.65-0.63-1.82-1.5c-2.18-11.12-10.1-19.27-24.21-24.9
			c-0.72-0.29-1.18-0.98-1.17-1.76c0.01-0.77,0.5-1.46,1.23-1.72c19.42-7.04,28.56-32.39,30.48-51.95c0.09-0.95,0.89-1.68,1.85-1.68
			l0,0c0.96,0,1.76,0.72,1.85,1.68c1.93,19.57,11.07,44.91,30.48,51.95c0.72,0.26,1.21,0.95,1.23,1.72
			c0.01,0.77-0.45,1.47-1.17,1.76c-14.11,5.63-22.02,13.77-24.21,24.9C108.05,143.28,107.29,143.91,106.4,143.91z M95.18,140.19
			h9.73c2.56-10.46,10.01-18.65,22.19-24.41c-14.8-7.6-23.33-25.2-27.05-41.85c-3.72,16.66-12.25,34.26-27.05,41.85
			C85.17,121.54,92.62,129.73,95.18,140.19z"/>
	</g>
	<g>
		<path class="st1" d="M106.4,164.12H93.69c-1.03,0-1.86-0.83-1.86-1.86v-20.22c0-1.03,0.83-1.86,1.86-1.86h12.72
			c1.03,0,1.86,0.83,1.86,1.86v20.22C108.26,163.29,107.43,164.12,106.4,164.12z M95.55,160.4h9v-16.5h-9V160.4z"/>
	</g>
	<g>
		<path class="st1" d="M100.04,108c-1.03,0-1.86-0.83-1.86-1.86V62.26c0-1.03,0.83-1.86,1.86-1.86c1.03,0,1.86,0.83,1.86,1.86v43.88
			C101.9,107.16,101.07,108,100.04,108z"/>
	</g>
	<g>
		<path class="st1" d="M100.04,117.19c-3.34,0-6.05-2.71-6.05-6.05c0-3.34,2.71-6.05,6.05-6.05c3.34,0,6.05,2.71,6.05,6.05
			C106.09,114.48,103.38,117.19,100.04,117.19z M100.04,108.81c-1.29,0-2.33,1.05-2.33,2.33c0,1.28,1.05,2.33,2.33,2.33
			c1.28,0,2.33-1.05,2.33-2.33C102.37,109.86,101.33,108.81,100.04,108.81z"/>
	</g>
	<g>
		<circle class="st1" cx="157.42" cy="41.93" r="4.19"/>
		<path class="st1" d="M157.42,47.98c-3.34,0-6.05-2.71-6.05-6.05s2.71-6.05,6.05-6.05s6.05,2.71,6.05,6.05
			S160.75,47.98,157.42,47.98z M157.42,39.6c-1.29,0-2.33,1.05-2.33,2.33s1.05,2.33,2.33,2.33c1.29,0,2.33-1.05,2.33-2.33
			S158.7,39.6,157.42,39.6z"/>
	</g>
	<g>
		<circle class="st1" cx="42.67" cy="41.93" r="4.19"/>
		<path class="st1" d="M42.67,47.98c-3.34,0-6.05-2.71-6.05-6.05s2.71-6.05,6.05-6.05c3.34,0,6.05,2.71,6.05,6.05
			S46.01,47.98,42.67,47.98z M42.67,39.6c-1.28,0-2.33,1.05-2.33,2.33s1.05,2.33,2.33,2.33c1.29,0,2.33-1.05,2.33-2.33
			S43.96,39.6,42.67,39.6z"/>
	</g>
	<g>
		<path class="st1" d="M153.23,96.97c-1.03,0-1.86-0.83-1.86-1.86c0-28.3-23.02-51.32-51.32-51.32c-28.3,0-51.32,23.02-51.32,51.32
			c0,1.03-0.83,1.86-1.86,1.86c-1.03,0-1.86-0.83-1.86-1.86c0-30.35,24.69-55.04,55.04-55.04c30.35,0,55.04,24.69,55.04,55.04
			C155.08,96.14,154.25,96.97,153.23,96.97z"/>
	</g>
	<g>
		<path class="st1" d="M153.23,43.79H46.86c-1.03,0-1.86-0.83-1.86-1.86s0.83-1.86,1.86-1.86h106.36c1.03,0,1.86,0.83,1.86,1.86
			S154.25,43.79,153.23,43.79z"/>
	</g>
	<g>
		<rect x="95.85" y="37.74" class="st0" width="8.38" height="8.38"/>
		<path class="st1" d="M104.23,47.98h-8.38c-1.03,0-1.86-0.83-1.86-1.86v-8.38c0-1.03,0.83-1.86,1.86-1.86h8.38
			c1.03,0,1.86,0.83,1.86,1.86v8.38C106.09,47.14,105.26,47.98,104.23,47.98z M97.71,44.26h4.66V39.6h-4.66V44.26z"/>
	</g>
	<g>
		<rect x="42.67" y="95.11" class="st0" width="8.38" height="8.38"/>
		<path class="st1" d="M51.05,105.35h-8.38c-1.03,0-1.86-0.83-1.86-1.86v-8.38c0-1.03,0.83-1.86,1.86-1.86h8.38
			c1.03,0,1.86,0.83,1.86,1.86v8.38C52.91,104.52,52.08,105.35,51.05,105.35z M44.53,101.63h4.66v-4.66h-4.66V101.63z"/>
	</g>
	<g>
		<rect x="149.04" y="95.11" class="st0" width="8.38" height="8.38"/>
		<path class="st1" d="M157.42,105.35h-8.38c-1.03,0-1.86-0.83-1.86-1.86v-8.38c0-1.03,0.83-1.86,1.86-1.86h8.38
			c1.03,0,1.86,0.83,1.86,1.86v8.38C159.27,104.52,158.44,105.35,157.42,105.35z M150.89,101.63h4.66v-4.66h-4.66V101.63z"/>
	</g>
</g>
</svg>
