<?xml version="1.0" encoding="utf-8"?>
<!-- Generator: Adobe Illustrator 25.0.0, SVG Export Plug-In . SVG Version: 6.00 Build 0)  -->
<svg version="1.1" id="Capa_1" xmlns="http://www.w3.org/2000/svg" xmlns:xlink="http://www.w3.org/1999/xlink" x="0px" y="0px"
	 viewBox="0 0 200 200" style="enable-background:new 0 0 200 200;" xml:space="preserve">
<style type="text/css">
	.st0{fill:#FFFFFF;}
	.st1{fill:#EAB308;}
</style>
<rect x="0.04" y="0" class="st0" width="200" height="200"/>
<g>
	<g>
		<path class="st1" d="M143.54,133.03H44.46c-0.75,0-1.36-0.61-1.36-1.36V60.87c0-0.75,0.61-1.36,1.36-1.36h76.08
			c0.75,0,1.36,0.61,1.36,1.36s-0.61,1.36-1.36,1.36H45.82v68.09h96.37V86.08c0-0.75,0.61-1.36,1.36-1.36s1.36,0.61,1.36,1.36v45.6
			C144.9,132.42,144.29,133.03,143.54,133.03z"/>
	</g>
	<g>
		<path class="st1" d="M143.54,121.55H44.46c-0.75,0-1.36-0.61-1.36-1.36c0-0.75,0.61-1.36,1.36-1.36h99.08
			c0.75,0,1.36,0.61,1.36,1.36C144.9,120.94,144.29,121.55,143.54,121.55z"/>
	</g>
	<g>
		<path class="st1" d="M104.15,144.23H83.85c-0.75,0-1.36-0.61-1.36-1.36v-11.2c0-0.75,0.61-1.36,1.36-1.36h20.31
			c0.75,0,1.36,0.61,1.36,1.36v11.2C105.51,143.62,104.9,144.23,104.15,144.23z M85.21,141.51h17.59v-8.48H85.21V141.51z"/>
	</g>
	<g>
		<path class="st1" d="M115.85,150.7H72.15c-0.75,0-1.36-0.61-1.36-1.36v-6.47c0-0.75,0.61-1.36,1.36-1.36h43.71
			c0.75,0,1.36,0.61,1.36,1.36v6.47C117.21,150.09,116.6,150.7,115.85,150.7z M73.51,147.98h40.99v-3.75H73.51V147.98z"/>
	</g>
	<g>
		<path class="st1" d="M57.11,107c-0.3,0-0.6-0.03-0.9-0.1c-1.79-0.39-3.27-1.91-4.52-4.67c-0.98-2.16-1.25-4.8-0.82-8.08
			c1.05-8,5.29-15.45,11.65-20.43c0.47-0.37,1.16-0.29,1.53,0.18c0.37,0.47,0.29,1.16-0.18,1.53C57.94,80.07,54,87,53.02,94.44
			c-0.38,2.86-0.17,5.12,0.64,6.9c0.93,2.06,1.94,3.22,3,3.44c1.71,0.37,3.93-1.58,6.08-3.47c1.1-0.96,2.23-1.95,3.36-2.7
			c3.09-2.04,6.45-2.87,9.45-2.33c2.78,0.5,5.09,2.1,7.32,3.64l0.74,0.51c2.27,1.55,4.72,2.97,7.29,2.8
			c1.33-0.09,2.7-0.85,3.49-1.95c0.39-0.54,0.81-1.4,0.56-2.4c-0.15-0.58,0.2-1.17,0.78-1.32c0.58-0.15,1.17,0.2,1.32,0.78
			c0.36,1.41,0.04,2.91-0.9,4.21c-1.18,1.62-3.13,2.71-5.11,2.84c-3.24,0.21-6.19-1.48-8.66-3.17l-0.75-0.52
			c-2.04-1.41-4.15-2.87-6.47-3.29c-2.45-0.44-5.24,0.27-7.86,2.01c-1,0.66-2.08,1.61-3.12,2.52C61.91,104.94,59.56,107,57.11,107z"
			/>
	</g>
	<g>
		<g>
			<path class="st1" d="M107.72,103.43c-3.06,0-5.83-1.02-7.83-2.56c-0.42-0.33-0.61-0.87-0.49-1.39c0.12-0.52,0.54-0.92,1.06-1.02
				c5-0.98,5.2-2.81,5.51-5.58c0.25-2.28,0.57-5.12,3.97-7.13l0,0c3.51-2.08,8.05-0.91,10.13,2.6c2.24,3.79,1.29,8.11-2.49,11.28
				C114.35,102.34,110.88,103.43,107.72,103.43z M104.23,100.15c3.27,1.12,7.63,0.74,11.61-2.6c2.73-2.29,3.44-5.21,1.89-7.82
				c-1.31-2.22-4.19-2.96-6.41-1.64c-2.23,1.32-2.42,2.99-2.65,5.09C108.4,95.57,108.08,98.43,104.23,100.15z M110.63,86.92h0.01
				H110.63z"/>
		</g>
		<g>
			<path class="st1" d="M119.52,90.75c-0.35,0-0.7-0.14-0.96-0.4l-2.62-2.62c-0.4-0.4-0.51-0.99-0.28-1.5
				c2.16-4.93,7-14.43,15.18-22.61c6.81-6.81,14.49-11.29,19.73-13.85c1.73-0.85,3.73-0.51,5.1,0.85c1.37,1.37,1.7,3.37,0.86,5.1
				c-2.56,5.24-7.04,12.92-13.85,19.73c-8.18,8.18-17.68,13.03-22.61,15.18C119.89,90.71,119.7,90.75,119.52,90.75z M118.52,86.47
				l1.3,1.3c4.94-2.24,13.51-6.81,20.94-14.24c6.54-6.54,10.86-13.95,13.33-19c0.5-1.03-0.13-1.78-0.34-1.99
				c-0.21-0.21-0.96-0.84-1.99-0.34c-5.06,2.47-12.46,6.79-19,13.33C125.34,72.96,120.76,81.53,118.52,86.47z"/>
		</g>
		<g>
			<path class="st1" d="M126.67,87.16c-0.35,0-0.69-0.13-0.96-0.4l-6.18-6.18c-0.53-0.53-0.53-1.39,0-1.92s1.39-0.53,1.92,0
				l6.18,6.18c0.53,0.53,0.53,1.39,0,1.92C127.36,87.02,127.02,87.16,126.67,87.16z"/>
		</g>
	</g>
</g>
</svg>
