<?xml version="1.0" encoding="utf-8"?>
<!-- Generator: Adobe Illustrator 25.0.0, SVG Export Plug-In . SVG Version: 6.00 Build 0)  -->
<svg version="1.1" id="Capa_1" xmlns="http://www.w3.org/2000/svg" xmlns:xlink="http://www.w3.org/1999/xlink" x="0px" y="0px"
	 viewBox="0 0 200 200" style="enable-background:new 0 0 200 200;" xml:space="preserve">
<style type="text/css">
	.st0{fill:#FFFFFF;}
	.st1{fill:#EAB308;}
</style>
<rect x="0.04" y="0" class="st0" width="200" height="200"/>
<g id="XMLID_4467_">
	<path id="XMLID_4477_" class="st1" d="M63.46,78.05H52.21c-1.24,0-2.25,1.01-2.25,2.25v5.63c0,1.24,1.01,2.25,2.25,2.25h11.26
		c1.24,0,2.25-1.01,2.25-2.25V80.3C65.71,79.06,64.71,78.05,63.46,78.05z M61.21,83.68h-6.75v-1.13h6.75V83.68z"/>
	<path id="XMLID_4468_" class="st1" d="M150.7,69.61h-26.75l-5.01-10.01c-0.38-0.76-1.16-1.24-2.01-1.24H83.16
		c-0.85,0-1.63,0.48-2.01,1.24l-5.01,10.01H49.39c-4.34,0-7.88,3.53-7.88,7.88v56.28c0,4.34,3.53,7.88,7.88,7.88h45.02
		c1.24,0,2.25-1.01,2.25-2.25v-6.19c0-1.07-0.75-1.99-1.8-2.21c-1.17-0.24-2.3-0.55-3.4-0.94l9.64-5.57
		c0.02-0.01,0.04-0.02,0.06-0.03c0,0,0,0,0.01,0l11.25-6.49v10.4c-2.17,1.19-4.54,2.08-7.06,2.6c-1.09,0.15-1.93,1.09-1.93,2.23v6.2
		c0,1.24,1.01,2.25,2.25,2.25h45.02c4.34,0,7.88-3.53,7.88-7.88V77.49C158.58,73.14,155.04,69.61,150.7,69.61z M74.6,110.39
		l9.48,5.49c0.06,0.04,0.12,0.08,0.18,0.12c0.01,0.01,0.02,0.02,0.03,0.02l11.24,6.49l-9.01,5.2
		C80.36,123.91,75.96,117.62,74.6,110.39z M105.67,102.81c-1.55,0-2.81-1.26-2.81-2.81c0-1.55,1.26-2.81,2.81-2.81
		c1.55,0,2.81,1.26,2.81,2.81C108.49,101.55,107.23,102.81,105.67,102.81z M104.54,88.74l9-5.2c6.13,3.76,10.57,9.99,11.95,17.29
		L104.54,88.74z M87.67,93.29V82.89c3.68-2.01,7.89-3.15,12.37-3.15c3,0,5.88,0.51,8.56,1.45L87.67,93.29z M83.17,97.19v12.96
		l-9.01-5.21c0.2-7.56,3.65-14.32,9.01-18.93V97.19z M116.92,114.07v-12.99l9,5.2c-0.19,7.47-3.6,14.3-9,18.96V114.07z
		 M150.7,137.14h-42.77v-2.16c6.06-1.63,11.54-5.14,15.57-10.02c4.48-5.42,6.94-12.29,6.94-19.33c0-16.76-13.63-30.39-30.39-30.39
		c-16.76,0-30.39,13.63-30.39,30.39c0,13.78,9.36,25.84,22.51,29.36v2.16H49.39c-1.86,0-3.38-1.51-3.38-3.38v-3.38H71.9
		c1.24,0,2.25-1.01,2.25-2.25c0-1.24-1.01-2.25-2.25-2.25H46.02v-48.4c0-1.86,1.51-3.38,3.38-3.38h28.14c0.85,0,1.63-0.48,2.01-1.24
		l5.01-10.01h30.99l5.01,10.01c0.38,0.76,1.16,1.24,2.01,1.24h28.14c1.86,0,3.38,1.51,3.38,3.38v48.4h-25.89
		c-1.24,0-2.25,1.01-2.25,2.25c0,1.24,1.01,2.25,2.25,2.25h25.89v3.38C154.07,135.63,152.56,137.14,150.7,137.14z"/>
</g>
</svg>
