<?xml version="1.0" encoding="utf-8"?>
<!-- Generator: Adobe Illustrator 25.0.0, SVG Export Plug-In . SVG Version: 6.00 Build 0)  -->
<svg version="1.1" id="Capa_1" xmlns="http://www.w3.org/2000/svg" xmlns:xlink="http://www.w3.org/1999/xlink" x="0px" y="0px"
	 viewBox="0 0 200 200" style="enable-background:new 0 0 200 200;" xml:space="preserve">
<style type="text/css">
	.st0{fill:#FFFFFF;}
	.st1{fill:#EAB308;}
</style>
<rect x="0.04" y="0" class="st0" width="200" height="200"/>
<g id="_x34_19_x2C__Coding_x2C__Develop_x2C__Development_x2C__Laptop_x2C__Programmer">
	<g>
		<path class="st1" d="M162.37,137.33h-8.22v-21.39c0-1.5-1.3-2.78-2.81-2.78s-2.81,1.28-2.81,2.78v21.39h-32.46
			c-1.51,0-2.81,1.28-2.81,2.78v5.35H83.81v-5.35c0-1.5-1.3-2.78-2.81-2.78H51.35V57.11h40.69c1.51,0,2.81-1.28,2.81-2.78
			s-1.3-2.78-2.81-2.78H48.76c-1.51,0-2.81,1.28-2.81,2.78v83h-8.22c-1.51,0-2.81,1.28-2.81,2.78v21.39c0,1.5,1.3,2.78,2.81,2.78
			h124.44c1.51,0,2.81-1.28,2.81-2.78v-21.39C164.97,138.61,163.88,137.33,162.37,137.33z M159.56,158.72H40.53v-16.04H78.4v5.35
			c0,1.5,1.3,2.78,2.81,2.78h35.27c1.52,0,2.81-1.28,2.81-2.78v-5.35h40.47L159.56,158.72L159.56,158.72z"/>
		<path class="st1" d="M94.63,67.8c0-1.5-1.3-2.78-2.81-2.78H62.61c-1.51,0-2.81,1.28-2.81,2.78v58.62c0,1.5,1.3,2.78,2.6,2.78
			c5.19,0,66.44,0.22,74.23,0c1.08,0,1.95,0,2.81-0.85c0.43-0.43,0.86-1.07,0.86-1.93v-10.48c0-1.5-1.3-2.78-2.81-2.78
			c-1.51,0-2.81,1.28-2.81,2.78v7.92c-9.52,0.22-44.36,0-69.68,0V70.59H91.6C93.55,70.59,94.63,69.3,94.63,67.8z"/>
		<path class="st1" d="M159.56,50.05c3.03,0,5.41-2.14,5.41-4.92v-4.49c0-2.78-2.38-4.92-5.41-4.92h-27.05
			c-3.03,0-5.41,2.14-5.41,4.92c0,0.21,0,8.98,0,8.98v8.34c0,2.35,0.87,4.28,2.16,5.99c-4.54,2.35-7.57,6.85-7.57,12.19V89.2
			c0,1.5,1.3,2.78,2.81,2.78h37.87c1.51,0,2.81-1.28,2.81-2.78V76.15c0-5.35-3.03-9.84-7.57-12.19c1.3-1.71,2.16-3.85,2.16-5.99
			L159.56,50.05L159.56,50.05z M148.74,62.45c-6.71,0-11.04,0-10.82,0h-0.87c-2.6,0-4.54-1.92-4.54-4.49v-3.42h19.04
			c0.86,0,1.95-0.22,2.81-0.64v4.07c0,2.57-1.95,4.49-4.54,4.49C149.39,62.45,148.52,62.45,148.74,62.45z M144.84,67.8l-1.51,3.42
			l-1.51-3.42H144.84z M132.51,41.06h27.05v3.64h-2.81c-2.81,0-5.19,1.93-5.41,4.49c-0.65,0,4.11,0-19.04,0v-8.13H132.51z
			 M159.56,86.63H127.1V76.15c0-4.71,3.9-8.34,8.44-8.34h0.65l4.76,11.77c0.87,2.14,4.11,2.14,4.98,0l4.76-11.77h0.65
			c4.54,0,8.44,3.85,8.44,8.34L159.56,86.63L159.56,86.63z"/>
		<path class="st1" d="M85.33,92.4c-1.3-0.85-3.03-0.43-3.68,0.64l-5.41,8.13c-0.87,1.28-0.43,2.78,0.65,3.64l8.22,5.35
			c1.3,0.85,3.03,0.43,3.68-0.64c0.87-1.28,0.43-2.78-0.87-3.64l-5.63-4.07l3.9-5.78C86.84,94.97,86.63,93.26,85.33,92.4z"/>
		<path class="st1" d="M103.29,109.52c0.86,1.28,2.6,1.5,3.68,0.64l8.22-5.35c1.3-0.86,1.52-2.57,0.65-3.64l-5.41-8.13
			c-0.87-1.28-2.6-1.5-3.68-0.64c-1.3,0.86-1.52,2.57-0.65,3.64l3.9,5.78l-5.84,3.85C102.86,106.52,102.42,108.24,103.29,109.52z"/>
		<path class="st1" d="M93.98,113.16c1.52,0.43,3.03-0.43,3.46-1.92l5.41-18.83c0.43-1.5-0.43-2.78-1.95-3.21
			c-1.51-0.43-3.03,0.43-3.25,1.93l-5.41,18.83C91.6,111.23,92.47,112.73,93.98,113.16z"/>
	</g>
</g>
</svg>
