<?xml version="1.0" encoding="utf-8"?>
<!-- Generator: Adobe Illustrator 25.0.0, SVG Export Plug-In . SVG Version: 6.00 Build 0)  -->
<svg version="1.1" id="Capa_1" xmlns="http://www.w3.org/2000/svg" xmlns:xlink="http://www.w3.org/1999/xlink" x="0px" y="0px"
	 viewBox="0 0 200 200" style="enable-background:new 0 0 200 200;" xml:space="preserve">
<style type="text/css">
	.st0{fill:#FFFFFF;}
	.st1{fill:#EAB308;}
</style>
<rect x="0.04" y="0" class="st0" width="200" height="200"/>
<g id="_x34_21_x2C__App_x2C__Code_x2C__Coding_x2C__Develop_x2C__Development">
	<g>
		<path class="st1" d="M158.59,39.41H41.5c-1.43,0-2.65,1.21-2.65,2.62v95.62c0,1.41,1.22,2.62,2.65,2.62h45.82v15.1h-5.09
			c-1.43,0-2.65,1.21-2.65,2.62c0,1.41,1.22,2.62,2.65,2.62c13.44,0,28.31,0,35.64,0c1.43,0,2.65-1.21,2.65-2.62
			c0-1.41-1.22-2.62-2.65-2.62h-5.09v-15.1h45.82c1.43,0,2.65-1.21,2.65-2.62V42.03C161.03,40.62,160.01,39.41,158.59,39.41z
			 M155.94,44.44v80.52h-112V44.44H155.94z M107.68,155.16H92.41v-15.1h15.27V155.16z M43.94,135.03v-5.03h112v5.03
			C143.72,135.03,57.79,135.03,43.94,135.03z"/>
		<path class="st1" d="M52.09,114.9H97.7c1.43,0,2.65-1.21,2.65-2.62c0-6.44,0-36.03,0-50.32c0-1.41-1.22-2.62-2.65-2.62H52.09
			c-1.43,0-2.65,1.21-2.65,2.62c0,12.68,0,46.3,0,50.32C49.44,113.89,50.66,114.9,52.09,114.9z M54.53,109.86V79.67h40.73v30.19
			H54.53L54.53,109.86z M54.53,64.57h40.73v10.06H54.53V64.57z"/>
		<path class="st1" d="M69.19,92.96l-3.26-3.22l3.26-3.22c1.02-1.01,1.02-2.62,0-3.62c-1.02-1.01-2.65-1.01-3.66,0l-5.09,5.03
			c-1.02,1.01-1.02,2.62,0,3.62l5.09,5.03c1.02,1.01,2.65,1.01,3.66,0C70.01,95.57,70.01,93.96,69.19,92.96z"/>
		<path class="st1" d="M84.47,87.92c-1.02-1.01-2.65-1.01-3.66,0c-1.02,1.01-1.02,2.62,0,3.62l3.26,3.22l-3.26,3.22
			c-1.02,1.01-1.02,2.62,0,3.62c1.02,1.01,2.65,1.01,3.66,0l5.09-5.03c1.02-1.01,1.02-2.62,0-3.62L84.47,87.92z"/>
		<path class="st1" d="M78.36,84.9c-1.43-0.4-2.85,0.2-3.26,1.61l-5.09,15.1c-0.41,1.41,0.2,2.82,1.63,3.22
			c1.43,0.4,2.85-0.2,3.26-1.61l5.09-15.1C80.39,86.71,79.58,85.31,78.36,84.9z"/>
		<rect x="59.22" y="67.19" class="st1" width="5.09" height="5.03"/>
		<rect x="69.8" y="67.19" class="st1" width="5.09" height="5.03"/>
		<path class="st1" d="M111.14,109.86c2.04,0,4.07-1.01,4.89-2.82l-2.24-1.41c-0.41,1.21-1.43,1.61-2.44,1.61
			c-3.26,0-4.07-5.43-1.43-7.05c0.81-0.4,2.04-0.4,2.65,0c0.61,0.4,1.02,0.81,1.02,1.41l2.24-1.41c-1.22-2.62-4.68-3.22-7.13-2.01
			c-3.05,1.41-4.07,4.83-3.05,7.65C106.66,108.25,108.7,109.86,111.14,109.86z"/>
		<path class="st1" d="M120.31,98.19c-4.68,2.21-4.68,8.86,0,11.27c1.43,0.6,3.26,0.6,4.68,0c2.85-1.41,4.28-4.83,3.05-7.85
			C126.82,98.39,123.16,96.78,120.31,98.19z M123.77,107.05c-0.82,0.4-1.83,0.4-2.65,0c-0.81-0.4-1.22-1.21-1.43-2.01
			c-0.2-0.81-0.2-2.21,0-2.62c0.2-0.8,0.61-1.61,1.43-2.01c0.61-0.4,1.83-0.4,2.65,0C126.01,101.61,126.01,105.84,123.77,107.05z"/>
		<path class="st1" d="M134.56,97.79h-4.48v12.08h4.48c3.66,0,6.11-2.21,6.11-6.04C140.67,100.2,138.43,97.79,134.56,97.79z
			 M137.61,105.23c-0.41,1.41-1.43,2.21-3.05,2.21h-1.83v-7.25c1.22,0,2.85-0.4,4.07,1.01
			C137.82,102.21,138.02,104.03,137.61,105.23z"/>
		<polygon class="st1" points="150.65,100.2 150.65,97.79 142.3,97.79 142.3,109.86 150.85,109.86 150.85,107.45 145.15,107.45 
			145.15,104.83 150.03,104.83 150.03,102.62 145.15,102.62 145.15,100.2 		"/>
		<path class="st1" d="M110.12,77.25h33.19c1.43,0,2.65-1.21,2.65-2.62c0-1.41-1.22-2.62-2.65-2.62h-33.19
			c-1.43,0-2.65,1.21-2.65,2.62C107.68,76.05,108.7,77.25,110.12,77.25z"/>
		<path class="st1" d="M120.31,64.57h23.01c1.43,0,2.65-1.21,2.65-2.62c0-1.41-1.22-2.62-2.65-2.62h-23.01
			c-1.43,0-2.65,1.21-2.65,2.62C117.86,63.57,118.88,64.57,120.31,64.57z"/>
	</g>
</g>
</svg>
